<svg xmlns="http://www.w3.org/2000/svg" xmlns:xlink="http://www.w3.org/1999/xlink" viewBox="0 0 396 612"><defs><style>.a{fill:none;}.b{fill:#42c1ce;}.c{fill:#37b4b7;}.d{fill:url(#a);}</style><pattern id="a" width="429.97" height="429.97" patternTransform="translate(-338.97 271) rotate(-180)" patternUnits="userSpaceOnUse" viewBox="0 0 429.97 429.97"><rect class="a" width="429.97" height="429.97"/><path class="b" d="M193.43,214.62V202.51a6.91,6.91,0,0,0-7.3-7.15c-4.33,0-7.35,2.94-7.35,7.15v5.18l0,4v38.92a6.91,6.91,0,0,0,7.3,7.15c4.33,0,7.35-2.94,7.35-7.15v-32Z"/><path class="b" d="M39.69,306c0-4.33-2.95-7.35-7.15-7.35H0v14.64H32.54A6.92,6.92,0,0,0,39.69,306Z"/><path class="b" d="M347.89,416.12c-4.33,0-7.35,2.94-7.35,7.15V430h14.65v-6.7A6.91,6.91,0,0,0,347.89,416.12Z"/><path class="b" d="M422.24,168.05c0,4.33,2.94,7.35,7.15,7.35H430V160.75h-.58A6.92,6.92,0,0,0,422.24,168.05Z"/><path class="b" d="M81.94,168.05c0-4.32-2.94-7.35-7.15-7.35H0v14.64H74.79A6.91,6.91,0,0,0,81.94,168.05Z"/><path class="b" d="M430,190.07V430H369.91v-6.7a22,22,0,0,0-44,0V430H0V328H32.54a22,22,0,0,0,0-44H0V190.07H74.79a22,22,0,1,0,0-44H0V0H77.09l.16,28.72H92L91.82,0H430V146h-.58a22,22,0,1,0,0,44ZM92,430l-.66-119.19H76.59L77.25,430ZM325.87,104.81a22,22,0,1,0,44,0V.25H355.24V104.81c0,4.21-3,7.15-7.35,7.15a6.92,6.92,0,0,1-7.3-7.15V.25H325.87ZM285,178.28h84.9V163.55H285Zm-37.87,0h24.09V163.55H247.14Zm-115.4,70.32H117V306h14.73Zm19.65-129.4a22,22,0,1,0,0-44H121.27a22,22,0,1,0,0,44Zm56.77,83.32a22,22,0,1,0-44,0v48.12a22,22,0,0,0,44,0ZM430,284H237.4a22,22,0,1,0,0,44H430V313.31H237.4c-4.21,0-7.15-3-7.15-7.35a6.91,6.91,0,0,1,7.15-7.3H430Z"/><path class="b" d="M151.39,89.82h-7.22l-4,0H121.27a6.91,6.91,0,0,0-7.15,7.3c0,4.33,2.94,7.35,7.15,7.35h14l4-.05H151.4a6.92,6.92,0,0,0,7.14-7.3C158.54,92.84,155.6,89.82,151.39,89.82Z"/><path class="c" d="M347.89,126.84a21.79,21.79,0,0,0,22-22V.25H355.24V104.81c0,4.21-3,7.15-7.35,7.15a6.92,6.92,0,0,1-7.3-7.15V.25H325.87V104.81A21.79,21.79,0,0,0,347.89,126.84Z"/><path class="c" d="M347.89,401.25a21.78,21.78,0,0,0-22,22V430h14.67v-6.7c0-4.21,3-7.15,7.35-7.15a6.91,6.91,0,0,1,7.3,7.15V430h14.72v-6.7A21.78,21.78,0,0,0,347.89,401.25Z"/><path class="c" d="M215.37,306a21.79,21.79,0,0,0,22,22H430V313.31H237.4c-4.21,0-7.15-3-7.15-7.35a6.91,6.91,0,0,1,7.15-7.3H430V284H237.4A21.79,21.79,0,0,0,215.37,306Z"/><path class="c" d="M54.56,306a21.79,21.79,0,0,0-22-22H0v14.67H32.54c4.2,0,7.15,3,7.15,7.35a6.92,6.92,0,0,1-7.15,7.3H0V328H32.54A21.79,21.79,0,0,0,54.56,306Z"/><polygon class="c" points="76.59 310.78 77.25 429.97 91.98 429.97 91.32 310.78 76.59 310.78"/><polygon class="c" points="91.98 28.72 91.82 0 77.09 0 77.25 28.72 91.98 28.72"/><rect class="c" x="117.01" y="248.59" width="14.73" height="57.38"/><path class="c" d="M208.16,202.51v48.12a22,22,0,0,1-44,0V202.51a22,22,0,1,1,44,0Zm-14.67,48.12v-32l-.06-4V202.51a6.91,6.91,0,0,0-7.3-7.15c-4.33,0-7.35,2.94-7.35,7.15v5.18l0,4v38.92a6.91,6.91,0,0,0,7.3,7.15C190.47,257.78,193.49,254.84,193.49,250.63Z"/><path class="c" d="M151.39,119.19H121.27a22,22,0,1,1,0-44h30.12a22,22,0,1,1,0,44Zm7.15-22c0-4.33-2.94-7.35-7.15-7.35h-7.22l-4,0H121.27a6.91,6.91,0,0,0-7.15,7.3c0,4.33,2.94,7.35,7.15,7.35h14l4-.05H151.4A6.92,6.92,0,0,0,158.54,97.17Z"/><path class="c" d="M96.82,168.05a21.79,21.79,0,0,0-22-22H0V160.7H74.79c4.21,0,7.15,3,7.15,7.35a6.91,6.91,0,0,1-7.15,7.3H0v14.73H74.79A21.79,21.79,0,0,0,96.82,168.05Z"/><path class="c" d="M407.37,168.05a21.78,21.78,0,0,0,22,22H430V175.4h-.58c-4.21,0-7.15-3-7.15-7.35a6.92,6.92,0,0,1,7.15-7.3H430V146h-.58A21.78,21.78,0,0,0,407.37,168.05Z"/><rect class="c" x="247.14" y="163.55" width="24.1" height="14.73"/><rect class="c" x="285.01" y="163.55" width="84.91" height="14.73"/></pattern></defs><title>selfwork-pattern</title><polygon class="d" points="0 0 396 0 396 612 0 612 0 0"/></svg>